<?xml version="1.0" encoding="utf-8"?>
<!-- Generator: Adobe Illustrator 20.1.0, SVG Export Plug-In . SVG Version: 6.00 Build 0)  -->
<svg version="1.1" id="Layer_1" xmlns="http://www.w3.org/2000/svg" xmlns:xlink="http://www.w3.org/1999/xlink" x="0px" y="0px"
	 width="1000px" height="1000px" viewBox="0 0 1000 1000" style="enable-background:new 0 0 1000 1000;" xml:space="preserve">
<g>
	<path d="M688.6,212.1c1.3-0.7,2.9-1.3,4.2-2c1.3-0.7,2.9-0.7,2.9-0.7s1.8,0,2.2,1.8c1.1,4.9,1.8,8.9,2.5,14.1
		c0.4,2.7,1.6,5.1,3.3,7.1c2.7,3.1,6,4.2,10.3,3.8c2.7-0.2,5.4-1.3,7.8-2.7c3.8-2,7.1-4.7,10.5-7.6c-0.4-1.3-0.7-2.7-0.9-4
		c-2.7-9.2-7.1-17.6-13.8-24.6c-3.1-3.1-6.5-5.8-10.7-7.6c-1.6-0.7-2.9-1.6-4-2.9c-1.1-1.1-2-2.5-2.9-3.6c-0.9-1.1-2-2.2-3.1-3.1
		c-0.4-0.4-1.3-0.9-2-1.1c-2.9-0.4-5.4,0.4-7.4,2.5c-0.9,1.1-1.1,2.2-0.4,3.6c1.1,2.2,1.6,4.7,2.2,7.1c0.2,0.4,0.2,1.1,0.2,1.8
		c-0.9,0.7-1.8,1.6-2.9,2.2c-0.9,0.7-1.8,1.3-2.9,2.2c-1.1,0.7-2,1.6-2.9,2.2s-2,1.3-2.7,2.2c-1.6,1.3,4.9,11.4,7.6,10.5
		C687.3,212.7,687.3,212.7,688.6,212.1z"/>
</g>
</svg>
